<?xml version="1.0" standalone="no"?>
<!DOCTYPE svg PUBLIC "-//W3C//DTD SVG 20010904//EN"
 "http://www.w3.org/TR/2001/REC-SVG-20010904/DTD/svg10.dtd">
<svg version="1.0" xmlns="http://www.w3.org/2000/svg"
 width="649.000000pt" height="649.000000pt" viewBox="0 0 649.000000 649.000000"
 preserveAspectRatio="xMidYMid meet">
<metadata>
Created by potrace 1.14, written by Peter Selinger 2001-2017
</metadata>
<g transform="translate(0.000000,649.000000) scale(0.100000,-0.100000)"
fill="#000000" stroke="none">
<path d="M3100 6273 c-485 -33 -850 -124 -1249 -309 l-94 -44 89 -93 c117
-121 229 -250 311 -357 l66 -87 91 29 c308 97 531 128 928 128 293 0 411 -10
642 -56 107 -21 320 -77 377 -99 11 -4 41 28 101 107 99 131 212 264 306 360
l66 67 -109 51 c-291 136 -639 237 -960 279 -181 24 -422 34 -565 24z"/>
<path d="M5807 4771 c-53 -211 -96 -366 -164 -583 l-46 -148 75 -147 c42 -82
94 -192 117 -245 142 -345 222 -751 224 -1143 1 -180 -14 -261 -79 -428 -118
-305 -403 -648 -769 -924 -630 -475 -1484 -777 -2045 -725 -952 90 -2195 869
-2563 1607 -101 203 -122 339 -93 621 45 449 148 823 345 1248 22 49 41 95 41
103 0 8 -24 91 -54 186 -64 203 -113 375 -155 547 -46 184 -37 179 -113 59
-325 -518 -483 -1067 -482 -1669 1 -240 15 -383 60 -608 188 -933 815 -1741
1691 -2181 903 -452 1992 -452 2896 0 320 160 555 328 811 578 365 358 610
741 772 1206 118 337 167 635 168 1010 2 527 -100 955 -337 1419 -58 114 -238
406 -250 406 -1 0 -24 -85 -50 -189z"/>
<path d="M4809 3645 c-176 -44 -646 -307 -790 -443 -72 -68 -136 -173 -124
-205 26 -67 373 -35 648 59 203 70 397 184 435 254 21 41 12 254 -13 305 -18
36 -24 40 -60 42 -22 1 -65 -4 -96 -12z"/>
<path d="M1544 3604 c-15 -39 -19 -75 -19 -173 l0 -123 56 -52 c154 -143 559
-281 861 -293 188 -8 217 11 167 109 -51 100 -166 191 -438 348 -255 146 -422
216 -542 227 l-66 6 -19 -49z"/>
<path d="M3023 2531 c-49 -8 -89 -41 -109 -88 -18 -43 -18 -225 0 -276 34 -95
125 -177 276 -251 47 -22 88 -45 92 -51 4 -5 8 -54 8 -107 0 -97 0 -98 -24
-98 -18 0 -32 -13 -56 -50 l-32 -49 -166 6 c-125 4 -169 9 -175 19 -12 21
-247 20 -247 0 0 -8 13 -24 29 -35 29 -21 33 -32 46 -118 6 -40 9 -43 39 -43
30 0 33 -3 45 -49 7 -28 28 -82 47 -122 l35 -73 20 30 c18 27 19 40 13 173
l-7 144 34 -6 c225 -40 609 -40 862 0 l37 6 0 -144 c0 -126 3 -147 20 -169
l19 -25 21 50 c12 28 33 78 47 113 23 56 28 62 54 62 21 0 32 6 39 23 9 20 50
178 50 191 0 3 -48 6 -107 6 -87 0 -111 -3 -127 -17 -19 -16 -38 -17 -163 -13
l-142 5 -30 43 c-19 25 -39 42 -51 42 -19 0 -20 7 -20 104 l0 104 75 37 c135
67 215 166 235 291 29 174 3 268 -85 316 l-50 28 -255 -1 c-140 -1 -274 -5
-297 -8z"/>
<path d="M3030 1371 c0 -28 6 -34 43 -51 55 -25 64 -25 71 5 5 20 13 25 36 25
23 0 35 -9 60 -45 54 -79 79 -80 144 -3 l36 42 32 -24 32 -23 35 19 c26 14 37
27 39 47 l3 27 -250 0 c-137 0 -256 3 -265 6 -13 5 -16 -1 -16 -25z"/>
</g>
</svg>
